<svg xmlns="http://www.w3.org/2000/svg" xmlns:xlink="http://www.w3.org/1999/xlink" width="500" zoomAndPan="magnify" viewBox="0 0 375 374.999991" height="500" preserveAspectRatio="xMidYMid meet" version="1.0"><defs><g/><clipPath id="7671c2fa22"><path d="M 91.957031 165.214844 L 105.457031 165.214844 L 105.457031 171.964844 L 91.957031 171.964844 Z M 91.957031 165.214844 " clip-rule="nonzero"/></clipPath></defs><g fill="#23221f" fill-opacity="1"><g transform="translate(84.508877, 202.039746)"><g><path d="M 14.464844 0.0898438 C 23.523438 -0.226562 27.527344 -6.878906 27.269531 -14.328125 C 27.007812 -21.777344 22.550781 -28.066406 13.492188 -27.75 C 4.363281 -27.429688 0.390625 -20.847656 0.652344 -13.398438 C 0.914062 -5.949219 5.335938 0.410156 14.464844 0.0898438 Z M 14.269531 -5.503906 C 10.074219 -5.359375 7.441406 -8.558594 7.261719 -13.628906 C 7.085938 -18.667969 9.492188 -22.007812 13.6875 -22.152344 C 17.886719 -22.300781 20.480469 -19.132812 20.65625 -14.097656 C 20.835938 -9.027344 18.464844 -5.652344 14.269531 -5.503906 Z M 14.269531 -5.503906 "/></g></g></g><g fill="#23221f" fill-opacity="1"><g transform="translate(111.645806, 201.092103)"><g><path d="M 20.738281 -0.722656 L 20.542969 -6.320312 L 8.828125 -5.910156 L 19.894531 -22.964844 L 19.738281 -27.40625 L 0.710938 -26.742188 L 0.90625 -21.148438 L 12.027344 -21.535156 L 0.761719 -4.261719 L 0.910156 -0.03125 Z M 20.738281 -0.722656 "/></g></g></g><g fill="#23221f" fill-opacity="1"><g transform="translate(131.718644, 200.391144)"><g><path d="M 13.347656 0.128906 C 19.816406 -0.0976562 23.652344 -3.523438 23.46875 -8.769531 C 23.253906 -14.957031 17.613281 -16.023438 13.066406 -16.878906 C 10 -17.472656 7.390625 -17.976562 7.324219 -19.898438 C 7.265625 -21.578125 8.988281 -22.339844 10.773438 -22.402344 C 13.394531 -22.492188 15.261719 -21.191406 15.972656 -18.941406 L 22.441406 -19.167969 C 21.394531 -25.082031 16.324219 -27.847656 10.730469 -27.652344 C 5.273438 -27.460938 0.925781 -24.683594 1.117188 -19.15625 C 1.320312 -13.28125 6.714844 -12.28125 11.226562 -11.421875 C 14.398438 -10.832031 17.113281 -10.332031 17.1875 -8.234375 C 17.257812 -6.136719 15.261719 -5.191406 13.128906 -5.117188 C 10.714844 -5.03125 8.269531 -5.855469 7.238281 -9.320312 L 0.769531 -9.097656 C 1.519531 -1.628906 8.308594 0.304688 13.347656 0.128906 Z M 13.347656 0.128906 "/></g></g></g><g fill="#23221f" fill-opacity="1"><g transform="translate(154.868903, 199.58272)"><g><path d="M 14.464844 0.0898438 C 23.523438 -0.226562 27.527344 -6.878906 27.269531 -14.328125 C 27.007812 -21.777344 22.550781 -28.066406 13.492188 -27.75 C 4.363281 -27.429688 0.390625 -20.847656 0.652344 -13.398438 C 0.914062 -5.949219 5.335938 0.410156 14.464844 0.0898438 Z M 14.269531 -5.503906 C 10.074219 -5.359375 7.441406 -8.558594 7.261719 -13.628906 C 7.085938 -18.667969 9.492188 -22.007812 13.6875 -22.152344 C 17.886719 -22.300781 20.480469 -19.132812 20.65625 -14.097656 C 20.835938 -9.027344 18.464844 -5.652344 14.269531 -5.503906 Z M 14.269531 -5.503906 "/></g></g></g><g fill="#23221f" fill-opacity="1"><g transform="translate(182.005832, 198.635077)"><g><path d="M 15.84375 -0.554688 L 15.472656 -11.148438 L 24.460938 -27.570312 L 17.148438 -27.316406 L 11.972656 -17.085938 L 6.097656 -26.929688 L -1.210938 -26.675781 L 8.898438 -10.921875 L 9.269531 -0.324219 Z M 15.84375 -0.554688 "/></g></g></g><g fill="#23221f" fill-opacity="1"><g transform="translate(227.345908, 189.350013)"><g><path d="M 2.332031 0 L 2.332031 -7.15625 L 4.332031 0 L 5.882812 0 L 7.882812 -7.203125 L 7.882812 0 L 9.464844 0 L 9.464844 -8.390625 L 6.828125 -8.390625 L 5.101562 -1.914062 L 3.363281 -8.390625 L 0.746094 -8.390625 L 0.746094 0 Z M 2.332031 0 "/></g></g></g><g fill="#23221f" fill-opacity="1"><g transform="translate(237.557688, 189.350013)"><g><path d="M 6.34375 0 L 6.34375 -1.417969 L 2.332031 -1.417969 L 2.332031 -3.496094 L 5.925781 -3.496094 L 5.925781 -4.902344 L 2.332031 -4.902344 L 2.332031 -6.972656 L 6.34375 -6.972656 L 6.34375 -8.390625 L 0.746094 -8.390625 L 0.746094 0 Z M 6.34375 0 "/></g></g></g><g fill="#23221f" fill-opacity="1"><g transform="translate(244.383859, 189.350013)"><g><path d="M 5.707031 -3.640625 C 6.519531 -4.023438 7.027344 -4.816406 7.027344 -5.914062 C 7.027344 -7.652344 5.9375 -8.390625 4.363281 -8.390625 L 0.746094 -8.390625 L 0.746094 0 L 2.332031 0 L 2.332031 -3.351562 L 4.199219 -3.351562 L 5.53125 0 L 7.210938 0 Z M 4.144531 -6.972656 C 4.980469 -6.972656 5.453125 -6.574219 5.453125 -5.859375 C 5.453125 -5.125 4.992188 -4.738281 4.144531 -4.738281 L 2.332031 -4.738281 L 2.332031 -6.972656 Z M 4.144531 -6.972656 "/></g></g></g><g fill="#23221f" fill-opacity="1"><g transform="translate(251.957502, 189.350013)"><g><path d="M 2.332031 0 L 2.332031 -7.15625 L 4.332031 0 L 5.882812 0 L 7.882812 -7.203125 L 7.882812 0 L 9.464844 0 L 9.464844 -8.390625 L 6.828125 -8.390625 L 5.101562 -1.914062 L 3.363281 -8.390625 L 0.746094 -8.390625 L 0.746094 0 Z M 2.332031 0 "/></g></g></g><g fill="#23221f" fill-opacity="1"><g transform="translate(262.169281, 189.350013)"><g><path d="M 6.34375 0 L 6.34375 -1.417969 L 2.332031 -1.417969 L 2.332031 -3.496094 L 5.925781 -3.496094 L 5.925781 -4.902344 L 2.332031 -4.902344 L 2.332031 -6.972656 L 6.34375 -6.972656 L 6.34375 -8.390625 L 0.746094 -8.390625 L 0.746094 0 Z M 6.34375 0 "/></g></g></g><g fill="#23221f" fill-opacity="1"><g transform="translate(268.995453, 189.350013)"><g><path d="M 5.707031 -3.640625 C 6.519531 -4.023438 7.027344 -4.816406 7.027344 -5.914062 C 7.027344 -7.652344 5.9375 -8.390625 4.363281 -8.390625 L 0.746094 -8.390625 L 0.746094 0 L 2.332031 0 L 2.332031 -3.351562 L 4.199219 -3.351562 L 5.53125 0 L 7.210938 0 Z M 4.144531 -6.972656 C 4.980469 -6.972656 5.453125 -6.574219 5.453125 -5.859375 C 5.453125 -5.125 4.992188 -4.738281 4.144531 -4.738281 L 2.332031 -4.738281 L 2.332031 -6.972656 Z M 4.144531 -6.972656 "/></g></g></g><g fill="#23221f" fill-opacity="1"><g transform="translate(276.569095, 189.350013)"><g/></g></g><g fill="#23221f" fill-opacity="1"><g transform="translate(279.51501, 189.350013)"><g><path d="M 3.296875 0.152344 C 4.125 0.152344 5.015625 -0.0664062 5.574219 -0.617188 L 6.070312 0 L 7.894531 0 L 6.675781 -1.515625 C 7.210938 -2.242188 7.519531 -3.144531 7.621094 -4.1875 L 6.234375 -4.1875 C 6.167969 -3.648438 6.082031 -3.167969 5.785156 -2.628906 L 4.429688 -4.332031 C 5.429688 -4.9375 6.035156 -5.671875 6.035156 -6.617188 C 6.035156 -7.816406 5.125 -8.542969 3.792969 -8.542969 C 2.453125 -8.542969 1.441406 -7.742188 1.441406 -6.488281 C 1.441406 -5.75 1.714844 -5.234375 2.40625 -4.53125 C 1.253906 -3.828125 0.496094 -3.199219 0.496094 -2.023438 C 0.496094 -0.582031 1.824219 0.152344 3.296875 0.152344 Z M 3.550781 -5.210938 C 3.113281 -5.707031 2.902344 -6.035156 2.902344 -6.476562 C 2.902344 -6.992188 3.296875 -7.332031 3.792969 -7.332031 C 4.289062 -7.332031 4.617188 -6.980469 4.617188 -6.5625 C 4.617188 -6.003906 4.179688 -5.617188 3.550781 -5.210938 Z M 3.332031 -1.109375 C 2.574219 -1.109375 1.957031 -1.460938 1.957031 -2.101562 C 1.957031 -2.757812 2.519531 -3.167969 3.222656 -3.59375 L 4.828125 -1.59375 C 4.441406 -1.308594 3.882812 -1.109375 3.332031 -1.109375 Z M 3.332031 -1.109375 "/></g></g></g><g fill="#23221f" fill-opacity="1"><g transform="translate(287.726203, 189.350013)"><g/></g></g><g fill="#23221f" fill-opacity="1"><g transform="translate(290.672118, 189.350013)"><g><path d="M 4.519531 0.152344 C 5.410156 0.152344 6.378906 -0.109375 6.960938 -0.945312 L 6.960938 0 L 8.398438 0 L 8.398438 -4.5625 L 4.96875 -4.5625 L 4.96875 -3.253906 L 6.828125 -3.253906 C 6.792969 -1.933594 5.96875 -1.265625 4.652344 -1.265625 C 2.9375 -1.265625 2.078125 -2.519531 2.078125 -4.210938 C 2.078125 -5.847656 2.902344 -7.125 4.507812 -7.125 C 5.617188 -7.125 6.3125 -6.628906 6.585938 -5.761719 L 8.324219 -5.761719 C 7.980469 -7.421875 6.683594 -8.542969 4.519531 -8.542969 C 1.703125 -8.542969 0.429688 -6.488281 0.429688 -4.199219 C 0.429688 -1.914062 1.703125 0.152344 4.519531 0.152344 Z M 4.519531 0.152344 "/></g></g></g><g fill="#23221f" fill-opacity="1"><g transform="translate(299.674749, 189.350013)"><g><path d="M 5.707031 -3.640625 C 6.519531 -4.023438 7.027344 -4.816406 7.027344 -5.914062 C 7.027344 -7.652344 5.9375 -8.390625 4.363281 -8.390625 L 0.746094 -8.390625 L 0.746094 0 L 2.332031 0 L 2.332031 -3.351562 L 4.199219 -3.351562 L 5.53125 0 L 7.210938 0 Z M 4.144531 -6.972656 C 4.980469 -6.972656 5.453125 -6.574219 5.453125 -5.859375 C 5.453125 -5.125 4.992188 -4.738281 4.144531 -4.738281 L 2.332031 -4.738281 L 2.332031 -6.972656 Z M 4.144531 -6.972656 "/></g></g></g><g fill="#23221f" fill-opacity="1"><g transform="translate(307.248391, 189.350013)"><g><path d="M 1.738281 0 L 2.296875 -1.726562 L 5.496094 -1.726562 L 6.070312 0 L 7.730469 0 L 4.773438 -8.390625 L 3.035156 -8.390625 L 0.078125 0 Z M 3.902344 -6.664062 L 5.058594 -3.113281 L 2.75 -3.113281 Z M 3.902344 -6.664062 "/></g></g></g><g fill="#23221f" fill-opacity="1"><g transform="translate(315.052872, 189.350013)"><g><path d="M 2.332031 0 L 2.332031 -6.015625 L 5.761719 0 L 7.554688 0 L 7.554688 -8.390625 L 5.96875 -8.390625 L 5.96875 -2.386719 L 2.527344 -8.390625 L 0.746094 -8.390625 L 0.746094 0 Z M 2.332031 0 "/></g></g></g><g fill="#23221f" fill-opacity="1"><g transform="translate(323.352001, 189.350013)"><g><path d="M 1.539062 -8.863281 C 2.023438 -8.863281 2.417969 -9.179688 2.417969 -9.675781 C 2.417969 -10.171875 2.023438 -10.5 1.539062 -10.5 C 1.054688 -10.5 0.648438 -10.171875 0.648438 -9.675781 C 0.648438 -9.179688 1.054688 -8.863281 1.539062 -8.863281 Z M 2.332031 0 L 2.332031 -8.390625 L 0.746094 -8.390625 L 0.746094 0 Z M 2.332031 0 "/></g></g></g><g fill="#23221f" fill-opacity="1"><g transform="translate(326.429821, 189.350013)"><g><path d="M 4.253906 0 L 4.253906 -6.972656 L 6.804688 -6.972656 L 6.804688 -8.390625 L 0.109375 -8.390625 L 0.109375 -6.972656 L 2.671875 -6.972656 L 2.671875 0 Z M 4.253906 0 "/></g></g></g><g clip-path="url(#7671c2fa22)"><path fill="#28a745" d="M 105.386719 165.214844 C 105.386719 168.921875 102.378906 171.929688 98.671875 171.929688 L 91.957031 171.929688 C 91.957031 168.222656 94.964844 165.214844 98.671875 165.214844 Z M 105.386719 165.214844 " fill-opacity="1" fill-rule="nonzero"/></g><path stroke-linecap="butt" transform="matrix(0, -0.75, 0.75, 0, 219.082711, 216.316392)" fill="none" stroke-linejoin="miter" d="M -0.0000187397 0.999094 L 76.859361 0.999094 " stroke="#28a745" stroke-width="2" stroke-opacity="1" stroke-miterlimit="4"/><path stroke-linecap="butt" transform="matrix(0, -0.75, 0.75, 0, 213.029902, 200.689439)" fill="none" stroke-linejoin="miter" d="M 0.0025851 1.001798 L 35.184879 1.001798 " stroke="#28a745" stroke-width="2" stroke-opacity="1" stroke-miterlimit="4"/></svg>