<svg xmlns="http://www.w3.org/2000/svg" xmlns:xlink="http://www.w3.org/1999/xlink" width="500" zoomAndPan="magnify" viewBox="0 0 375 374.999991" height="500" preserveAspectRatio="xMidYMid meet" version="1.0"><defs><g/><clipPath id="c028cd4017"><path d="M 56.488281 151.464844 L 318.167969 151.464844 L 318.167969 223.464844 L 56.488281 223.464844 Z M 56.488281 151.464844 " clip-rule="nonzero"/></clipPath><clipPath id="b45b4946b9"><path d="M 63.558594 158.238281 L 187.332031 158.238281 L 187.332031 216.761719 L 63.558594 216.761719 Z M 63.558594 158.238281 " clip-rule="nonzero"/></clipPath></defs><g clip-path="url(#c028cd4017)"><path stroke-linecap="butt" transform="matrix(0.75, 0, 0, 0.75, 56.489269, 151.465449)" fill="none" stroke-linejoin="miter" d="M -0.00131672 -0.000807338 L 348.904956 -0.000807338 L 348.904956 96.092949 L -0.00131672 96.092949 Z M -0.00131672 -0.000807338 " stroke="#000000" stroke-width="6" stroke-opacity="1" stroke-miterlimit="4"/></g><g clip-path="url(#b45b4946b9)"><path fill="#000000" d="M 63.558594 158.238281 L 187.332031 158.238281 L 187.332031 216.761719 L 63.558594 216.761719 Z M 63.558594 158.238281 " fill-opacity="1" fill-rule="nonzero"/></g><g fill="#ffffff" fill-opacity="1"><g transform="translate(70.805577, 195.665893)"><g><path d="M 11.789062 0.570312 C 17.769531 0.675781 22.054688 -3.464844 22.160156 -9.445312 C 22.265625 -15.425781 18.125 -19.714844 12.144531 -19.816406 C 6.164062 -19.921875 1.90625 -15.78125 1.800781 -9.800781 C 1.695312 -3.820312 5.808594 0.464844 11.789062 0.570312 Z M 4.328125 -9.757812 C 4.40625 -14.335938 7.578125 -17.425781 12.101562 -17.347656 C 16.621094 -17.265625 19.683594 -14.066406 19.605469 -9.488281 C 19.523438 -4.914062 16.351562 -1.820312 11.832031 -1.898438 C 7.308594 -1.980469 4.246094 -5.179688 4.328125 -9.757812 Z M 7.65625 -23.40625 C 7.636719 -22.367188 8.355469 -21.625 9.421875 -21.605469 C 10.488281 -21.589844 11.234375 -22.304688 11.25 -23.34375 C 11.269531 -24.382812 10.550781 -25.125 9.484375 -25.144531 C 8.417969 -25.164062 7.675781 -24.445312 7.65625 -23.40625 Z M 13.1875 -23.3125 C 13.171875 -22.273438 13.886719 -21.527344 14.957031 -21.511719 C 16.023438 -21.492188 16.765625 -22.207031 16.785156 -23.246094 C 16.800781 -24.285156 16.085938 -25.03125 15.015625 -25.046875 C 13.949219 -25.066406 13.207031 -24.351562 13.1875 -23.3125 Z M 13.1875 -23.3125 "/></g></g></g><g fill="#ffffff" fill-opacity="1"><g transform="translate(96.522043, 196.114775)"><g><path d="M 1.488281 0.0273438 L 15.5 0.269531 L 15.542969 -2.089844 L 4.816406 -2.277344 L 15.53125 -17.566406 L 15.5625 -19.390625 L 2.113281 -19.628906 L 2.070312 -17.269531 L 12.238281 -17.089844 L 1.519531 -1.800781 Z M 1.488281 0.0273438 "/></g></g></g><g fill="#ffffff" fill-opacity="1"><g transform="translate(115.613092, 196.448011)"><g><path d="M 9.402344 0.53125 C 13.699219 0.605469 16.515625 -1.453125 16.574219 -4.878906 C 16.625 -7.773438 14.71875 -9.546875 9.710938 -10.871094 C 5.910156 -11.863281 4.664062 -12.898438 4.691406 -14.527344 C 4.726562 -16.40625 6.429688 -17.558594 9.238281 -17.507812 C 12.132812 -17.457031 13.902344 -15.964844 13.917969 -13.605469 L 16.363281 -13.5625 C 16.398438 -17.382812 13.6875 -19.789062 9.28125 -19.867188 C 4.984375 -19.941406 2.222656 -17.882812 2.164062 -14.570312 C 2.113281 -11.535156 4.246094 -9.8125 9.054688 -8.578125 C 12.578125 -7.675781 14.050781 -6.664062 14.019531 -4.839844 C 13.984375 -2.902344 12.222656 -1.78125 9.441406 -1.828125 C 6.382812 -1.882812 4.273438 -3.4375 4.261719 -5.964844 L 1.789062 -6.007812 C 1.75 -2.160156 4.710938 0.449219 9.402344 0.53125 Z M 9.402344 0.53125 "/></g></g></g><g fill="#ffffff" fill-opacity="1"><g transform="translate(135.91132, 196.802318)"><g><path d="M 11.789062 0.570312 C 17.769531 0.675781 22.054688 -3.464844 22.160156 -9.445312 C 22.265625 -15.425781 18.125 -19.714844 12.144531 -19.816406 C 6.164062 -19.921875 1.90625 -15.78125 1.800781 -9.800781 C 1.695312 -3.820312 5.808594 0.464844 11.789062 0.570312 Z M 4.328125 -9.757812 C 4.40625 -14.335938 7.578125 -17.425781 12.101562 -17.347656 C 16.621094 -17.265625 19.683594 -14.066406 19.605469 -9.488281 C 19.523438 -4.914062 16.351562 -1.820312 11.832031 -1.898438 C 7.308594 -1.980469 4.246094 -5.179688 4.328125 -9.757812 Z M 4.328125 -9.757812 "/></g></g></g><g fill="#ffffff" fill-opacity="1"><g transform="translate(161.627786, 197.2512)"><g><path d="M 7.863281 0.136719 L 10.277344 0.179688 L 10.402344 -6.898438 L 18.007812 -19.351562 L 15.226562 -19.398438 L 9.269531 -9.558594 L 6.789062 -14.039062 L 3.683594 -19.601562 L 0.820312 -19.648438 L 7.988281 -6.941406 Z M 7.863281 0.136719 "/></g></g></g><g fill="#000000" fill-opacity="1"><g transform="translate(195.364756, 196.769512)"><g><path d="M 11.460938 0.421875 C 18.226562 0.421875 22.46875 -4.492188 21.851562 -11.402344 L 10.476562 -11.402344 L 10.476562 -7.414062 L 15.898438 -7.414062 C 15.335938 -5.757812 13.761719 -4.632812 11.515625 -4.632812 C 8.371094 -4.632812 6.542969 -6.851562 6.542969 -9.832031 C 6.542969 -12.917969 8.539062 -15.027344 11.460938 -15.027344 C 13.199219 -15.027344 14.6875 -14.269531 15.449219 -13.03125 L 21.484375 -13.03125 C 20.335938 -17.328125 16.347656 -20.082031 11.375 -20.082031 C 5.195312 -20.082031 0.953125 -15.867188 0.953125 -9.832031 C 0.953125 -3.761719 5.222656 0.421875 11.460938 0.421875 Z M 11.460938 0.421875 "/></g></g></g><g fill="#000000" fill-opacity="1"><g transform="translate(218.169786, 196.769512)"><g><path d="M 2.078125 0 L 7.75 0 L 7.75 -5.589844 L 9.886719 -5.589844 L 12.695312 0 L 19.128906 0 L 15.503906 -6.628906 C 17.582031 -7.78125 18.761719 -9.859375 18.761719 -12.609375 C 18.761719 -16.964844 15.8125 -19.660156 11.039062 -19.660156 L 2.078125 -19.660156 Z M 7.640625 -10.109375 L 7.640625 -15.027344 L 10.28125 -15.027344 C 12.078125 -15.027344 13.058594 -14.15625 13.058594 -12.582031 C 13.058594 -11.011719 12.078125 -10.109375 10.28125 -10.109375 Z M 7.640625 -10.109375 "/></g></g></g><g fill="#000000" fill-opacity="1"><g transform="translate(238.390997, 196.769512)"><g><path d="M 0.140625 0 L 6.152344 0 L 7.21875 -2.78125 L 13.929688 -2.78125 L 15 0 L 21.035156 0 L 13.398438 -19.660156 L 7.78125 -19.660156 Z M 8.398438 -6.9375 L 10.589844 -13.03125 L 12.78125 -6.9375 Z M 8.398438 -6.9375 "/></g></g></g><g fill="#000000" fill-opacity="1"><g transform="translate(259.567094, 196.769512)"><g><path d="M 2.078125 0 L 7.695312 0 L 7.695312 -10.027344 L 15.167969 0 L 19.773438 0 L 19.773438 -19.660156 L 14.183594 -19.660156 L 14.183594 -9.691406 L 6.710938 -19.660156 L 2.078125 -19.660156 Z M 2.078125 0 "/></g></g></g><g fill="#000000" fill-opacity="1"><g transform="translate(281.44532, 196.769512)"><g><path d="M 2.078125 0 L 7.75 0 L 7.75 -19.660156 L 2.078125 -19.660156 Z M 2.105469 -23.957031 C 2.105469 -22.328125 3.257812 -21.207031 4.914062 -21.207031 C 6.574219 -21.207031 7.75 -22.328125 7.75 -23.957031 C 7.75 -25.558594 6.574219 -26.683594 4.914062 -26.683594 C 3.257812 -26.683594 2.105469 -25.558594 2.105469 -23.957031 Z M 2.105469 -23.957031 "/></g></g></g><g fill="#000000" fill-opacity="1"><g transform="translate(291.27508, 196.769512)"><g><path d="M 6.769531 0 L 12.414062 0 L 12.414062 -14.410156 L 18.398438 -14.410156 L 18.398438 -19.660156 L 0.785156 -19.660156 L 0.785156 -14.410156 L 6.769531 -14.410156 Z M 6.769531 0 "/></g></g></g></svg>